<svg width="247" height="100" viewBox="0 0 247 100" fill="none" xmlns="http://www.w3.org/2000/svg">
<path d="M155.71 70.46C154.68 70.46 153.8 69.88 153.39 69.04L153 68.13L152.56 67.11C152.41 66.79 152.26 66.42 152.08 66.02L152.04 65.94C151.94 65.71 151.84 65.46 151.73 65.2C150.51 62.3 148.47 57.27 146.48 52.32L142.16 41.83C142.16 41.83 141.92 41.24 141.62 40.52C141.24 39.61 140.78 38.48 140.6 38.05L140.53 37.88V37.85L139.49 35.36C139.42 35.15 139.21 35 138.98 35C138.75 35 138.53 35.15 138.46 35.36L137.5 37.76C137.45 37.88 137.39 38.02 137.34 38.17C137.31 38.25 137.28 38.33 137.25 38.42L136.4 40.63L133.49 48.24L125.79 68.26C125.79 68.26 125.77 68.3 125.77 68.31L125.46 69.09C125.08 69.87 124.26 70.42 123.3 70.45H123.22C123.05 70.45 122.91 70.58 122.91 70.75C122.91 70.92 123.05 71.05 123.22 71.05H130.33C130.51 71.05 130.65 70.92 130.65 70.75C130.65 70.58 130.51 70.45 130.33 70.45H130.31C129.68 70.45 129.16 69.96 129.16 69.35C129.16 69.28 129.16 69.21 129.18 69.14L129.68 67.42C129.73 67.21 129.8 66.99 129.87 66.77L129.92 66.58C129.97 66.43 130.02 66.28 130.08 66.13L132.08 60.66L132.91 58.26C132.94 58.15 133.05 58.08 133.17 58.07H143.59C143.7 58.07 143.79 58.15 143.83 58.24L144.58 60.26L147.71 68L148.23 69.23C148.26 69.32 148.28 69.42 148.28 69.53C148.28 70.04 147.85 70.45 147.31 70.45C147.14 70.45 146.99 70.59 146.99 70.75C146.99 70.91 147.13 71.05 147.31 71.05H147.33H155.71C155.88 71.05 156.02 70.91 156.02 70.75C156.02 70.59 155.88 70.45 155.71 70.45V70.46ZM142.76 56.29H133.94C133.8 56.27 133.7 56.16 133.7 56.03C133.7 56.02 133.7 56 133.7 55.99L134.32 54.21L137.44 45.05L137.91 43.64C137.95 43.54 138.05 43.47 138.17 43.47C138.29 43.47 138.38 43.53 138.42 43.62L138.97 45.11L142.32 54.19L142.97 55.94C142.97 55.94 142.97 55.98 142.97 56.01C142.97 56.14 142.88 56.25 142.75 56.27L142.76 56.29Z" fill="white"/>
<path d="M246 70.46C244.97 70.46 244.09 69.88 243.69 69.04L243.3 68.13L242.85 67.11C242.71 66.79 242.55 66.42 242.37 66.02L242.34 65.94C242.24 65.71 242.14 65.46 242.03 65.2C240.81 62.3 238.77 57.27 236.78 52.32L232.45 41.83C232.45 41.83 232.21 41.24 231.91 40.52C231.53 39.61 231.07 38.48 230.89 38.05L230.82 37.88V37.85L229.78 35.36C229.71 35.15 229.5 35 229.26 35C229.02 35 228.81 35.15 228.74 35.36L227.78 37.76C227.73 37.88 227.68 38.02 227.62 38.17C227.59 38.25 227.56 38.33 227.53 38.42L226.69 40.63L223.78 48.24L216.08 68.26C216.08 68.26 216.06 68.3 216.05 68.31L215.74 69.09C215.36 69.87 214.54 70.42 213.58 70.45H213.5C213.33 70.45 213.19 70.58 213.19 70.75C213.19 70.92 213.33 71.05 213.5 71.05H220.61C220.78 71.05 220.93 70.92 220.93 70.75C220.93 70.58 220.79 70.45 220.61 70.45H220.59C219.96 70.45 219.44 69.96 219.44 69.35C219.44 69.28 219.44 69.21 219.46 69.14L219.96 67.42C220.01 67.21 220.08 66.99 220.15 66.77L220.2 66.58C220.25 66.43 220.3 66.28 220.36 66.13L222.36 60.66L223.19 58.26C223.22 58.15 223.33 58.08 223.45 58.07H233.87C233.98 58.07 234.07 58.15 234.11 58.24L234.86 60.26L237.98 68L238.5 69.23C238.53 69.32 238.55 69.42 238.55 69.53C238.55 70.04 238.12 70.45 237.59 70.45C237.42 70.45 237.27 70.59 237.27 70.75C237.27 70.91 237.41 71.05 237.59 71.05C237.59 71.05 237.6 71.05 237.61 71.05H245.99C246.16 71.05 246.3 70.91 246.3 70.75C246.3 70.59 246.16 70.45 245.99 70.45L246 70.46ZM233.05 56.29H224.23C224.09 56.27 223.99 56.16 223.99 56.03C223.99 56.02 223.99 56 223.99 55.99L224.61 54.21L227.73 45.05L228.2 43.64C228.24 43.54 228.34 43.47 228.46 43.47C228.58 43.47 228.67 43.53 228.71 43.62L229.26 45.11L232.61 54.19L233.26 55.94C233.26 55.94 233.26 55.98 233.26 56.01C233.26 56.14 233.17 56.25 233.04 56.27L233.05 56.29Z" fill="white"/>
<path d="M174.22 52.46C173.44 51.8 172.56 51.18 171.59 50.44L170.24 49.42C168.6 48.2 167.33 47.25 166.37 46.41C166.16 46.23 165.97 46.05 165.79 45.88C165.49 45.6 165.23 45.32 165.01 45.05C164.4 44.19 164.05 43.15 164.05 42.04C164.05 40.41 164.81 38.94 166.01 37.95C166.8 37.39 167.75 37 168.76 36.81H168.79C168.93 36.78 169.08 36.75 169.22 36.73C169.29 36.72 169.35 36.71 169.42 36.7C169.52 36.68 169.63 36.67 169.73 36.66C170.18 36.61 170.61 36.6 170.85 36.6H170.89C171.38 36.6 171.85 36.62 172.31 36.67C175.26 36.94 177.46 38.05 177.46 39.39C177.46 39.56 177.61 39.7 177.79 39.7C177.97 39.7 178.11 39.56 178.11 39.39V38V36.45C178.11 36.45 178.11 36.41 178.11 36.39C178.11 36.37 178.11 36.35 178.11 36.33C178.08 36.09 177.9 35.9 177.66 35.84C177.63 35.84 177.6 35.83 177.56 35.82C176.25 35.6 172.88 35.07 170.69 35.09C169.47 35.07 168.59 35.14 168.46 35.15C168.38 35.15 168.3 35.17 168.23 35.18C168.19 35.18 168.17 35.18 168.17 35.18C163.04 35.79 159.54 38.95 159.54 43.37C159.54 45.37 160.21 47.26 162.02 49.4C163.29 50.81 165.68 52.61 165.68 52.61L168.3 54.55L168.37 54.6C169.16 55.21 171.16 56.58 172.74 58.18C172.92 58.36 173.09 58.54 173.26 58.73C174.27 59.93 176.14 63.33 173.1 66.96C171.79 68.34 169.88 69.38 167.61 69.51H167.59C167.47 69.51 167.36 69.52 167.24 69.52H166.8C166.8 69.52 166.77 69.52 166.76 69.52H166.66C162.79 69.48 159.68 67.51 159.68 65.1C159.68 64.93 159.53 64.79 159.36 64.79C159.19 64.79 159.04 64.93 159.03 65.1V69.59C159.14 69.75 159.31 69.86 159.58 69.99C159.81 70.1 160.04 70.19 160.27 70.28C160.27 70.28 160.37 70.32 160.56 70.39C160.57 70.39 166.85 72.36 173.23 70.44C173.26 70.43 174.99 69.85 176.49 68.77C176.91 68.43 177.32 68.06 177.7 67.63C177.72 67.61 177.73 67.6 177.75 67.58C177.75 67.58 177.85 67.48 178 67.27C178.03 67.22 178.07 67.18 178.1 67.14C178.28 66.91 178.44 66.68 178.58 66.44C180.24 63.73 179.88 60.49 179.88 60.49C179.6 57.37 177.36 54.93 174.21 52.46H174.22Z" fill="white"/>
<path d="M121.89 31.77H124.18C125.16 31.93 125.91 32.78 125.91 33.8C125.92 33.99 126.08 34.15 126.28 34.15C126.48 34.15 126.64 34 126.65 33.8V31.77C126.65 31.13 126.66 30.49 126.66 29.97C126.66 29.95 126.66 29.94 126.66 29.92C126.66 29.91 126.66 29.89 126.66 29.88V29.16C126.66 28.95 126.49 28.78 126.28 28.78C126.2 28.78 126.12 28.81 126.06 28.85C125.52 29.1 124.93 29.24 124.3 29.26H99.88C99.69 29.27 99.53 29.43 99.53 29.63C99.53 29.83 99.69 29.99 99.88 30C100.92 30 101.78 30.78 101.93 31.78V68.44C101.81 69.47 100.93 70.27 99.87 70.27C99.67 70.28 99.52 70.44 99.52 70.64C99.52 70.84 99.67 71 99.87 71.01H109.36C109.55 71 109.71 70.84 109.71 70.64C109.71 70.44 109.55 70.28 109.36 70.27C108.26 70.27 107.36 69.41 107.29 68.32V62H107.3V53.26V50.22C107.3 49.85 107.59 49.55 107.95 49.53H116.71C117.79 49.61 118.64 50.5 118.64 51.59C118.65 51.78 118.81 51.94 119.01 51.94C119.21 51.94 119.37 51.79 119.38 51.59V49.51V49.38V47.56V47.28V45.21C119.37 45.02 119.21 44.86 119.01 44.86C118.81 44.86 118.65 45.01 118.64 45.21C118.64 46.31 117.78 47.2 116.7 47.28H107.9C107.56 47.24 107.3 46.96 107.29 46.62V32.39C107.29 32.39 107.29 32.3 107.29 32.27C107.35 32 107.57 31.8 107.85 31.78H121.87L121.89 31.77Z" fill="white"/>
<path d="M214.82 39.38C214.83 39.55 214.97 39.68 215.15 39.68C215.33 39.68 215.47 39.55 215.48 39.38V35.39C215.48 35.21 215.33 35.07 215.14 35.07C215.07 35.07 215 35.09 214.94 35.13C214.46 35.34 213.94 35.46 213.39 35.47H185.69C185.14 35.45 184.61 35.33 184.14 35.13C184.08 35.09 184.02 35.07 183.95 35.07C183.76 35.07 183.61 35.21 183.61 35.39V39.38C183.62 39.54 183.76 39.68 183.94 39.68C184.12 39.68 184.26 39.55 184.27 39.38C184.27 38.41 185.09 37.63 186.11 37.63H196.58C196.9 37.63 197.16 37.87 197.16 38.18V68.7C197.14 69.65 196.33 70.43 195.32 70.43C195.15 70.44 195.01 70.58 195.01 70.74C195.01 70.9 195.15 71.04 195.32 71.05H203.79C203.96 71.04 204.1 70.9 204.1 70.73C204.1 70.56 203.96 70.43 203.79 70.42C202.78 70.42 201.95 69.63 201.95 68.66V38.17C201.95 37.87 202.21 37.62 202.53 37.62H213C214.01 37.62 214.84 38.41 214.84 39.38H214.82Z" fill="white"/>
<path d="M25.56 13.76C25.71 14.31 25.83 14.84 25.95 15.33C26.36 17.08 26.66 18.34 27.46 18.34C27.58 18.34 27.72 18.31 27.86 18.26C28.81 17.9 28.72 17.19 28.62 16.37C28.52 15.56 28.03 14.88 29.46 14.12C29.8 13.99 30.31 13.84 30.6 13.84C31.25 13.84 31.47 14.25 31.88 14.56C32.26 14.84 32.61 15.11 33.11 15.11C33.33 15.11 33.56 15.06 33.83 14.96C34.43 14.34 34.07 13.87 32.77 12.38C32.47 12.04 32.13 11.65 31.77 11.21C29.81 8.84999 27.59 6.17999 25.8 6.17999C25.55 6.17999 25.3 6.22999 25.07 6.33999C24.78 6.41999 24.59 6.54999 24.46 6.76999C23.91 7.68999 24.52 9.90999 25.17 12.26C25.3 12.75 25.44 13.25 25.57 13.76H25.56ZM26.35 9.95999C26.43 9.56999 26.59 9.17999 26.91 9.09999C27.36 8.97999 28.09 9.44999 28.57 10.19C28.85 10.63 29.14 11.31 29.04 11.8C28.91 12.44 28.25 12.85 27.71 12.83C27.36 12.82 27.07 12.63 26.91 12.31C26.6 11.65 26.19 10.69 26.34 9.95999H26.35Z" fill="white"/>
<path d="M77.59 26.36C76.41 27.12 75.1 28.19 75.12 28.47V28.52C75.12 28.52 75.17 29.08 75.85 29.55C76.13 29.75 76.29 29.77 76.83 29.39C77.4 28.99 78.31 28.25 78.95 28.25C79.01 28.25 79.07 28.25 79.12 28.26C79.55 28.32 79.88 28.51 80.39 29.02C81.25 29.88 82.32 30.95 83.99 30.95C84.65 30.95 85.37 30.78 86.12 30.44C87.81 29.68 87.85 28.04 87.58 26.79C87.05 24.34 85.02 21.84 84.19 21.84C84.14 21.84 84.09 21.85 84.06 21.88C83.76 22.07 83.2 22.47 82.5 22.98C81.5 23.7 80.27 24.59 79.05 25.4C78.23 25.94 77.77 26.23 77.58 26.35L77.59 26.36ZM81.71 26.63C81.93 25.99 83.4 24.76 84.42 24.8C85.1 24.82 85.67 25.77 85.81 26.64C85.98 27.64 85.59 28.43 84.79 28.73C84.53 28.79 84.3 28.82 84.1 28.84C82.93 28.94 82.33 28.51 82.04 28.13C81.61 27.59 81.62 26.92 81.72 26.63H81.71Z" fill="white"/>
<path d="M16.5 83.79C16.36 83.65 16.11 83.56 15.82 83.56C15.41 83.56 15.03 83.73 14.85 83.99C14.7 84.21 14.69 84.48 14.81 84.81C14.97 85.09 15.23 85.25 15.53 85.25C16.02 85.25 16.58 84.8 16.61 84.12C16.61 83.99 16.58 83.88 16.49 83.8L16.5 83.79Z" fill="white"/>
<path d="M11.57 17.12C12.19 17.38 12.98 17.32 13.34 16.41C13.35 16.38 13.36 16.35 13.38 16.31C13.74 15.26 12.94 14.8 12.68 14.68C11.95 14.34 10.93 14.49 10.57 15.26C10.55 15.3 10.54 15.33 10.53 15.37C10.28 16.09 10.87 16.83 11.57 17.12Z" fill="white"/>
<path d="M63.09 20C63.62 20.42 64.58 20.26 65.59 18.52C66.27 17.34 67.39 18.08 67.47 18.56C67.54 19.04 67.28 21.21 67.3 21.57C67.32 21.93 67.64 22.77 68.52 22.91C69.41 23.05 69.26 21.88 69.26 21.88C69.26 21.88 69.14 18.58 69.43 18.39C69.72 18.2 69.97 18.25 70.73 18.1C71.5 17.95 73.57 16.81 73.75 14.44C73.93 12.07 70.95 9.88 70.1 9.67C69.36 9.48 68.64 10.51 68.64 10.51C68.64 10.51 64.39 16.64 63.49 17.56C62.59 18.48 62.41 19.45 63.09 19.99V20ZM69.93 12.49C70.5 12.01 71.09 13.27 71.09 13.27C72.16 15.24 70.17 16.39 69.44 16.48C68.71 16.57 67.9 15.58 67.95 15.27C68.12 14.36 69.92 12.5 69.92 12.5L69.93 12.49Z" fill="white"/>
<path d="M71.54 21.36C71.5 21.43 71.05 22.25 71.14 23.44C71.22 24.12 71.35 25.04 72.1 25.43C72.92 25.86 73.6 26.09 74.13 26.09C74.54 26.09 74.94 26.03 75.2 25.94C76.2 25.58 79.28 24.31 81.64 19.79C81.93 19.18 81.78 18.49 81.75 18.37C81.56 17.7 81.22 17.48 80.42 17.62C79.88 17.74 79.36 18.78 78.8 19.88C77.94 21.58 77.07 23.4 75.39 23.61C75.02 23.66 74.63 23.52 74.23 23.35L74.17 23.31C72.98 22.09 74.08 20.51 75.46 18.89C76.54 17.62 77.67 16.32 77.42 15.36C77.41 15.3 77.39 15.25 77.38 15.19C77.27 14.83 76.93 14.04 76.01 14.33C75.31 14.56 74.91 15.21 74.69 15.7C74.63 15.89 74.41 16.29 74.41 16.29C74.3 16.56 74.16 16.82 74 17.1C73.65 17.69 73.24 18.47 72.71 19.26C72.09 20.19 71.93 20.65 71.53 21.36H71.54Z" fill="white"/>
<path d="M68.79 75.73C68.79 75.73 68.69 75.73 68.65 75.75C68.02 75.89 67.47 76.75 67.52 77.52C67.55 77.98 67.79 78.31 68.22 78.48C68.25 78.49 68.77 78.62 69.29 78.41C70.01 78.05 70.07 77.47 70.03 77.12C69.95 76.41 69.35 75.74 68.8 75.74L68.79 75.73Z" fill="white"/>
<path d="M25.01 39.29L23.04 40.53C23.04 40.53 22.96 40.57 22.91 40.57C22.87 40.57 22.83 40.57 22.8 40.54C22.8 40.54 22.87 40.57 22.91 40.57C22.95 40.57 23 40.56 23.03 40.53L25 39.29L25.09 39.23L25 39.28L25.01 39.29Z" fill="white"/>
<path d="M21.01 21.8H21.04C21.89 21.74 22.61 21.24 23.18 20.67C23.25 20.59 23.35 20.49 23.48 20.35C23.6 20.22 23.7 20.09 23.8 19.96C24.38 19.12 24.52 18.07 24.55 17.59C24.69 14.51 23.11 12.89 23.11 12.89C22.32 11.99 21.3 11.47 21.1 11.38C20.65 11.17 20.19 11.01 19.77 10.89C18.59 10.6 17.53 10.94 17.19 11.07C16.37 11.4 15.44 11.9 14.93 12.34C14.87 12.4 14.54 12.77 14.81 13.42C15.85 15.44 19.61 21.8 21.03 21.8H21.01ZM17.71 13.53C17.91 13.33 18.28 13.23 18.73 13.24C19.15 13.25 20.6 13.43 21.67 15.08C22.62 16.28 22.54 17.52 22.13 18.28C21.89 18.74 21.52 19.02 21.18 19C21.03 19 20.89 18.93 20.77 18.83C20.12 18.2 17.63 14.64 17.57 13.89C17.56 13.76 17.61 13.63 17.71 13.53Z" fill="white"/>
<path d="M36.72 13.14C37.3 13.32 38.09 12.85 38.11 12.84C38.65 12.44 39.07 11.84 39.49 11.07C40.2 9.79 40.19 6.98 39.11 5.13C38.43 3.96 37.17 2.84 36.01 2.25C34.6 1.31 32.31 2.12 32.23 2.15C31.62 2.33 31.05 2.6 30.77 2.94C30.62 3.13 30.57 3.33 30.62 3.54C30.87 4.65 34.16 10.65 35.96 12.67C36.1 12.81 36.35 13.02 36.72 13.14ZM34.29 4.16C34.6 4.16 35.34 4.28 36.36 5.17C36.42 5.23 37.46 6.26 37.73 7.38C38.02 8.62 37.87 9.77 37.56 10.28C37.4 10.55 37.21 10.61 37.09 10.61C37.02 10.61 36.95 10.59 36.89 10.56C36.39 10.3 33.39 5.25 33.58 4.58C33.65 4.32 33.92 4.16 34.3 4.16H34.29Z" fill="white"/>
<path d="M42.01 7.56C42.31 7.6 42.47 7.68 43.26 7.24C43.47 7.09 43.67 6.89 43.89 6.67C44.53 6 44.98 4.27 44.61 2.96C44.38 2.13 43.79 1.24 43.17 0.689998C42.45 -0.120002 40.92 -1.83005e-06 40.86 0.00999817C40.45 0.0199982 40.06 0.0999982 39.84 0.259998C39.72 0.349998 39.66 0.459998 39.65 0.599998C39.62 1.34 40.74 5.77 41.52 7.19C41.54 7.22 41.72 7.51 42.01 7.55V7.56ZM41.43 2.03C41.5 1.9 41.67 1.86 41.86 1.91C42.02 1.95 42.39 2.12 42.81 2.72C42.83 2.76 43.24 3.44 43.22 4.07C43.2 4.76 42.97 5.34 42.73 5.57C42.61 5.69 42.5 5.69 42.44 5.68C42.41 5.68 42.37 5.65 42.34 5.62C42.11 5.41 41.23 2.35 41.42 2.03H41.43Z" fill="white"/>
<path d="M46.92 7.62999C48 7.89999 48.93 7.63999 49.02 7.14999C49.06 6.92999 48.94 6.67999 48.77 6.61999C48.45 6.50999 48.02 6.53999 47.82 6.48999C47.37 6.37999 47.09 6.30999 47.05 5.73999C47.03 5.50999 47.18 5.01999 47.31 4.87999C47.58 4.57999 48.03 4.61999 48.56 4.61999C49.27 4.61999 49.39 4.55999 49.44 4.19999C49.47 4.02999 49.26 3.84999 48.86 3.75999C48.25 3.61999 47.7 3.59999 47.49 3.16999C47.39 2.95999 47.39 2.73999 47.52 2.45999C47.72 2.03999 47.76 1.93999 48.34 1.93999C48.61 1.93999 49.14 2.07999 49.42 2.11999C49.69 2.15999 50.04 2.32999 50.25 2.32999C50.59 2.32999 50.69 2.16999 50.74 1.97999C50.81 1.75999 50.64 1.56999 50.58 1.50999C50.01 0.969993 48.5 0.289993 47.57 0.289993C47.39 0.289993 47.25 0.319993 47.14 0.369993C46.14 0.839993 45.95 2.16999 45.82 3.03999C45.78 3.32999 45.74 3.55999 45.69 3.71999C45.69 3.71999 45.15 5.67999 45.83 6.84999C46.07 7.25999 46.43 7.51999 46.91 7.63999L46.92 7.62999Z" fill="white"/>
<path d="M48.7 8.44C48.16 9.02 47.67 9.55 47.37 9.98C47.37 9.99 46.92 10.7 47.41 10.99C47.74 11.19 48.05 11.28 48.34 11.28C48.9 11.28 49.35 10.93 49.83 10.55C50.3 10.18 50.67 9.47 51.28 9.47C51.56 9.47 51.95 9.87 52.24 10.03C52.99 10.62 52.83 11.41 52.68 12.16C52.56 12.75 52.45 13.33 52.72 13.83C52.78 13.94 53.14 14.5 53.93 14.5C54.56 14.47 54.66 14.09 54.87 13.05C55.01 12.32 55.19 11.41 55.72 10.34C57.84 6.07 57.82 3 56.99 2.42L56.96 2.39C56.69 2.09 56.38 1.95 56.01 1.95C54.32 1.95 51.77 4.93 50.09 6.9C49.61 7.46 49.14 7.97 48.72 8.42L48.7 8.44ZM52.73 6.55C52.97 5.92 54.09 4.94 54.73 4.94C54.95 4.94 55.13 5.05 55.21 5.25C55.39 5.69 55.23 6.37 55.02 6.87C54.89 7.16 54.54 7.87 53.97 8.07C53.84 8.12 53.71 8.14 53.58 8.14C53.25 8.14 52.96 7.98 52.77 7.69C52.56 7.36 52.54 6.92 52.72 6.55H52.73Z" fill="white"/>
<path d="M58.54 17.4C60.96 18.42 63.48 16.21 63.63 14.41C63.74 12.98 62.2 12.5 61.56 12.37C61.23 12.31 60.93 12.49 60.93 12.49C60.7 12.65 60.49 12.93 60.77 13.42C61.26 14.27 61.98 14.05 61.48 15.1C60.98 16.15 59.33 16.2 58.92 14.48C58.61 13.18 58.56 11.01 60.12 9.65C60.12 9.65 61.73 8.01 63.34 8.63C63.67 8.74 63.97 8.98 64.1 9.47C64.46 10.83 66.41 9.78 66.08 8.51C65.73 7.18 64.57 6.64 64.57 6.64C64.57 6.64 61.16 4.82 58.31 8.62C55.67 12.14 56.14 16.39 58.56 17.41L58.54 17.4Z" fill="white"/>
<path d="M82.75 31.98C81.8 31.88 80.9 31.65 80.1 31.44C79.15 31.2 78.18 30.99 77.58 31.06C77.04 31.12 76.4 31.76 76.39 32.05C76.36 32.99 77.04 33.13 77.92 33.3C78.78 33.46 80.03 33.66 79.81 35.36C79.89 36.61 79.14 36.67 78.49 36.72C77.82 36.77 77.18 36.82 76.92 37.84C76.89 37.98 76.84 38.38 77.17 38.76C77.33 38.9 77.52 38.97 77.77 38.97C78.24 38.97 78.85 38.73 79.56 38.45C80.39 38.12 81.34 37.75 82.39 37.63C86.2 37.2 88.5 36.2 88.66 34.66C88.79 32.64 86.98 32.4 83.8 32.09C83.47 32.06 83.13 32.02 82.78 31.99L82.75 31.98ZM85.67 34.92C85.67 35.02 85.65 35.17 85.5 35.32C85.11 35.73 84.01 35.98 83.17 35.98C82.72 35.98 82.4 35.91 82.22 35.78C81.89 35.53 81.74 35.09 81.85 34.69C81.95 34.34 82.24 34.09 82.6 34.06C82.74 34.03 82.97 34.02 83.23 34.02C83.47 34.02 85.62 34.05 85.66 34.94L85.67 34.92Z" fill="white"/>
<path d="M85.79 39.56C84.2 38.97 82.16 39.08 81.99 39.09C77.84 39.51 76.92 42.08 76.88 43.03C76.86 43.57 77.07 44.1 77.5 44.54C78.14 45.21 79.01 45.64 79.99 45.64C80.19 45.64 80.45 45.62 80.72 45.54C81.49 45.3 81.58 44.51 81.58 44.51C81.58 44.51 81.78 43.79 80.84 43.55C80.14 43.37 80.03 42.96 80.02 42.75C80.02 42.73 80.02 42.71 80.02 42.68C80.02 42.65 80.02 42.62 80.02 42.62C80.04 42.53 80.08 42.44 80.14 42.35C80.87 41.34 82.03 41.33 82.88 41.33H82.93C83.86 41.33 85.86 41.66 85.91 42.9C85.93 43.44 85.68 43.76 85.48 44.02C85.22 44.36 85.05 44.58 85.36 45.18C85.47 45.39 85.7 45.49 86.05 45.49C86.61 45.49 87.36 45.2 87.97 44.79C89.04 43.89 88.97 42.88 88.9 42.59C88.47 41.16 87.4 40.15 85.77 39.54L85.79 39.56Z" fill="white"/>
<path d="M79.79 46.45C78.53 46.45 77.12 47.2 76.89 48.63C76.76 49.41 76.89 50.03 77.27 50.47C77.66 50.93 78.32 51.19 79.11 51.19C79.25 51.19 79.38 51.19 79.52 51.17C79.66 51.15 81.65 50.89 82 49.27C82 49.24 82.01 49.22 82.02 49.19C82.16 48.44 82.07 47.82 81.75 47.35C81.36 46.78 80.65 46.45 79.8 46.45H79.79ZM79.69 49.88C79.36 49.91 79.03 49.82 78.79 49.64C78.56 49.46 78.42 49.22 78.41 48.97C78.41 48.76 78.5 48.52 78.73 48.32C78.73 48.32 79.33 47.78 80.01 48C80.55 48.13 80.76 48.51 80.77 48.83C80.78 49.3 80.38 49.83 79.69 49.89V49.88Z" fill="white"/>
<path d="M47.2 87.86C47.12 87.78 47.02 87.71 46.92 87.65C46.89 87.63 46.86 87.62 46.83 87.6C46.48 87.44 46.07 87.4 45.81 87.4C45.46 87.4 45.09 87.45 44.75 87.55C44.68 87.57 44.61 87.6 44.54 87.62C43.72 87.96 42.82 88.89 42.63 89.74C42.62 89.81 42.61 89.88 42.6 89.95V89.99C42.6 89.99 42.54 90.78 43.16 91.57C43.29 91.75 43.45 91.93 43.66 92.18L43.75 92.29C43.75 92.29 44.65 93.15 45.05 94.33C45.06 94.36 45.07 94.39 45.08 94.42V94.45C45.54 95.95 44.33 96.76 44.33 96.76C43.84 97.1 43.42 96.9 43.3 96.83L43.28 96.81C42.97 96.62 42.84 96.18 42.84 96.18C42.8 96.06 42.75 95.98 42.71 95.92C42.71 95.92 42.69 95.88 42.65 95.84C42.63 95.82 42.62 95.81 42.62 95.81C42.5 95.71 42.25 95.58 41.88 95.72C41.56 95.84 41.46 96.09 41.43 96.3C41.41 96.46 41.43 96.58 41.43 96.58C41.43 96.7 41.44 96.81 41.46 96.92C41.49 97.1 41.53 97.28 41.58 97.45C41.74 97.99 42.12 98.77 42.99 99.13C43.02 99.14 43.04 99.15 43.07 99.16C43.15 99.19 43.24 99.22 43.34 99.24C43.59 99.3 43.98 99.38 44.38 99.33C44.78 99.28 45.19 99.07 45.44 98.92C45.52 98.88 45.59 98.83 45.66 98.78C45.68 98.77 45.69 98.76 45.69 98.76C46.27 98.33 46.71 97.69 47 96.85L47.03 96.7C47.16 96.14 47.37 95.21 46.92 93.92C46.58 92.94 45.98 92.28 45.5 91.76C45.16 91.39 44.88 91.08 44.78 90.75C44.78 90.75 44.51 90.07 45.25 89.63C45.28 89.61 45.31 89.6 45.35 89.58C45.37 89.58 45.38 89.56 45.4 89.56C45.42 89.56 45.43 89.55 45.45 89.54C45.45 89.54 45.83 89.3 46.54 89.58C46.65 89.61 46.86 89.65 47.13 89.6C47.54 89.52 47.62 89.03 47.56 88.6C47.51 88.29 47.44 88.09 47.22 87.88L47.2 87.86Z" fill="white"/>
<path d="M27.85 79.37C26.41 79.37 24.86 80.05 23.9 81.1C23.25 81.81 22.92 82.64 22.91 83.52C22.91 83.57 22.93 83.92 23.09 84.28C23.44 84.96 24.06 85.32 24.95 85.32C26.58 85.32 28.8 84.03 29.8 82.49C30.13 81.98 30.46 81.24 30.15 80.55C29.81 79.8 28.97 79.36 27.85 79.36V79.37ZM28.13 82.11C27.8 82.77 26.97 83.48 26.2 83.48C25.94 83.48 25.71 83.4 25.52 83.24C24.81 82.74 25.19 82.1 25.19 82.1C25.48 81.27 26.42 80.67 27.23 80.67C27.62 80.67 27.95 80.82 28.14 81.08C28.33 81.34 28.33 81.7 28.12 82.11H28.13Z" fill="white"/>
<path d="M2.04001 34.55C2.04001 34.55 2.06001 34.55 2.07001 34.55H2.09001C5.06001 35.31 9.43001 35.78 10.68 35.85C10.75 35.85 11.68 35.87 12.03 35.66C12.56 35.32 12.53 34.67 12.21 34.35C11.64 33.78 10.81 33.99 9.62001 34.07C9.45001 34.08 9.26001 34.07 9.07001 34.07C9.07001 34.07 8.45001 34.05 8.25001 34.02C8.05001 33.99 7.83001 33.8 7.71001 33.57C7.59001 33.34 7.63001 32.94 7.73001 32.77C7.89001 32.4 8.26001 32.24 8.26001 32.24C9.41001 31.51 11.19 31.93 12.02 31.67C12.6 31.49 12.59 30.79 12.49 30.48C12.41 30.19 12.15 30.06 11.98 30C11.27 29.78 10.41 29.83 9.66001 30.04C7.55001 30.81 7.52001 30.86 7.25001 31.05C7.06001 31.18 6.97001 31.01 6.97001 31.01C6.87001 30.75 6.72001 30.39 6.59001 30.09V30.07C6.27001 29.32 5.46001 28.83 5.44001 28.82C5.16001 28.68 4.82001 28.56 4.42001 28.47C3.13001 28.2 2.28001 28.6 1.78001 29.02C1.52001 29.26 0.890012 30.14 0.670012 31.3C0.650012 31.41 0.630012 31.51 0.600012 31.59C0.430012 32.96 0.890012 33.74 1.28001 34.14C1.28001 34.14 1.62001 34.46 2.03001 34.57L2.04001 34.55ZM2.57001 31.85C2.72001 31.16 3.29001 30.47 4.16001 30.73C4.81001 30.85 5.31001 31.55 5.43001 32.15C5.53001 32.62 5.43001 33.02 5.13001 33.25C5.00001 33.35 4.80001 33.37 4.43001 33.31C4.23001 33.28 4.00001 33.22 3.75001 33.17C3.48001 33.11 3.21001 33.05 2.95001 33.01C2.59001 32.88 2.44001 32.41 2.56001 31.86L2.57001 31.85Z" fill="white"/>
<path d="M7.76 62.41C8.38 62.41 8.96 62.44 9.47 62.47C9.89 62.49 10.29 62.52 10.64 62.52C11.86 62.52 12.3 62.23 12.42 61.38C12.46 61.09 12.35 60.95 12.25 60.82C12.1 60.64 11.83 60.55 11.48 60.53C10.91 60.49 8.86 60.92 8.73 60.11C8.58 59.24 10.25 58.19 11.29 57.82C12.08 57.54 12.74 57.19 12.4 56.18C12.21 55.84 11.8 55.73 11.8 55.73C11.52 55.7 11.26 55.73 11.26 55.73C9.9 55.75 7.57 57.87 7.33 58.03C7.09 58.19 7.01 58.01 7.01 58.01C5.91 56.08 4.42 55.67 4.37 55.66C3.13 55.33 2 55.86 2 55.86C-0.329997 57.16 -0.0799972 60.21 0.120003 61.44C0.130003 61.52 0.290003 62.33 1.22 62.41H7.76ZM3.83 57.77C4.63 57.79 5.35 58.48 5.6 59.11C5.8 59.61 5.73 60.07 5.42 60.38C5.29 60.51 5.04 60.57 4.58 60.57C4.33 60.57 4.04 60.55 3.74 60.54C3.41 60.52 3.07 60.5 2.75 60.5C2.29 60.42 2.04 59.92 2.09 59.29C2.16 58.5 2.73 57.64 3.83 57.76V57.77Z" fill="white"/>
<path d="M3.34001 26.05C3.34001 26.05 7.06001 28.4 11.61 29.4C11.77 29.43 12.25 29.51 12.54 29.33C12.77 29.18 12.99 28.93 12.98 28.49C12.98 28.31 12.9 28.15 12.78 28.03C12.72 27.97 12.65 27.91 12.58 27.86C12.28 27.65 11.98 27.57 11.98 27.57C11.79 27.51 11.65 27.42 11.14 27.34C9.32001 27.04 8.73001 26.72 8.71001 26.71C8.39001 26.53 8.48001 26.4 8.48001 26.4C8.50001 26.32 8.59001 26.26 8.71001 26.22C8.71001 26.22 8.81001 26.19 8.86001 26.17C9.25001 26.06 10.37 26.01 12.73 25.73C12.75 25.73 12.79 25.73 12.82 25.73C13.32 25.69 14.95 25.54 15.35 25.25C15.93 24.8 15.86 24.43 15.86 24.43C15.92 23.87 14.16 22.81 13.59 22.53C13.02 22.25 11.89 21.32 11.89 21.32C10.21 20.06 8.80001 18.48 8.80001 18.48C8.80001 18.48 7.35001 17.21 6.44001 18.16C6.10001 18.51 6.11001 18.91 6.24001 19.28C6.26001 19.32 6.97001 20.28 8.31001 21.21C8.31001 21.21 10.13 22.47 10.67 23.03L10.69 23.05C10.75 23.11 10.78 23.15 10.78 23.15C10.94 23.59 10.35 23.63 10.35 23.63C10.28 23.64 10.21 23.65 10.11 23.66H10.09C9.99001 23.67 9.88001 23.68 9.75001 23.69C9.70001 23.69 9.65001 23.69 9.60001 23.69C8.40001 23.75 5.41001 23.9 4.27001 23.87C4.08001 23.89 3.89001 23.9 3.69001 23.92C3.69001 23.92 3.38001 23.94 3.11001 24.26C2.60001 24.84 2.79001 25.32 2.79001 25.32C2.84001 25.51 2.97001 25.8 3.32001 26.07L3.34001 26.05Z" fill="white"/>
<path d="M63.82 89.15C63.26 89.1 62.78 89.05 62.57 88.75C62.4 88.51 62.34 88.18 62.27 87.81C62.14 87.15 61.99 86.34 61.24 85.37C59.75 83.02 57.47 82.84 56.81 82.84C56.61 82.84 56.42 82.85 56.25 82.88C56.25 82.88 56.14 82.88 55.98 82.93C55.89 82.95 55.81 82.97 55.73 83C55.08 83.22 54.01 83.82 53.82 85.45C53.78 85.71 53.76 86.09 53.82 86.59C53.86 86.85 54.06 88.16 54.69 89.37C54.71 89.41 54.73 89.45 54.75 89.49C54.76 89.52 54.78 89.54 54.79 89.57C55.57 90.95 56.83 92.42 58.81 93.03C59.26 93.15 60.52 93.42 61.35 92.98C61.69 92.77 62.16 92.34 62.44 91.56C62.44 91.56 62.63 91.07 62.88 91.04C63.12 91 64.14 90.86 64.14 90.86C64.93 90.67 65.31 90.39 65.31 89.93C65.31 89.35 64.72 89.25 63.82 89.16V89.15ZM60.23 90.35C59.74 90.77 58.94 90.6 58.74 90.55C57.31 90.17 56.33 88.92 56.05 87.67C55.79 86.49 56.18 85.51 57.08 85.12C57.18 85.08 57.28 85.04 57.39 85.02C58.69 84.74 60.05 86.19 60.58 87.7C60.97 88.83 60.84 89.8 60.24 90.36L60.23 90.35Z" fill="white"/>
<path d="M80.47 70.76C79.8 70.76 79.29 71.02 78.96 71.52C78.32 72.49 78.33 73.77 78.96 74.95C79.67 76.25 80.97 77.1 82.27 77.1C82.51 77.1 82.75 77.07 82.99 77.01C83.31 76.92 84 76.67 84.38 76.04C84.42 75.98 84.45 75.92 84.48 75.86V75.83C84.88 75.01 84.74 74.22 84.5 73.64C83.86 72.1 81.97 70.75 80.46 70.75L80.47 70.76ZM82.82 74.63C82.4 75.38 81.43 75.19 81.43 75.19C80.81 75.13 80.23 74.73 79.91 74.14C79.62 73.58 79.63 72.98 79.95 72.51C80.14 72.22 80.45 72.07 80.83 72.07C81.36 72.07 81.96 72.38 82.38 72.81H82.39C82.73 73.11 83.25 73.88 82.83 74.63H82.82Z" fill="white"/>
<path d="M85.74 65.69C85.74 65.69 84.45 65.69 82.98 66.66C82.95 66.68 82.91 66.7 82.88 66.73C82.84 66.75 82.81 66.78 82.78 66.8C82.11 67.24 81.48 67.64 80.95 67.74C80.95 67.74 79.26 68.3 79.01 67.07C79.01 67.07 78.95 66.17 79.67 65.96C80.38 65.75 80.24 64.44 78.96 64.48C78.36 64.52 77.7 64.66 77.15 64.91C77.13 64.91 75.86 65.52 76.02 67.11C76.13 67.99 76.45 68.63 76.96 69.02C77.16 69.16 77.59 69.37 78.37 69.41C78.52 69.41 78.68 69.42 78.85 69.42C79.54 69.42 80.23 69.34 80.85 69.2C81.6 69.02 82.28 68.75 82.88 68.52C83.61 68.23 84.4 67.81 84.95 67.81C85.42 67.81 85.77 67.96 86.07 68.34L86.19 68.6C86.32 69.17 85.6 69.5 85.17 69.78C84.85 69.98 84.52 70.19 84.46 70.47C84.42 70.66 84.49 70.88 84.68 71.16C84.87 71.4 85.19 71.52 85.65 71.52C85.84 71.52 86.03 71.5 86.23 71.47C86.49 71.42 86.88 71.29 87.25 70.98C88.12 70.19 89.06 68.95 88.5 67.55C87.94 66.12 86.74 65.74 85.75 65.69H85.74Z" fill="white"/>
<path d="M88.04 47.09C87.82 47.09 87.57 47.1 87.32 47.11C87.22 47.11 87.13 47.11 87.03 47.12C87.03 47.12 86.3 47.17 84.71 47.24C83.55 47.3 82.98 47.9 82.76 48.22C82.76 48.22 82.67 48.35 82.62 48.52C82.6 48.59 82.59 48.66 82.58 48.73C82.58 48.73 82.58 48.75 82.58 48.76C82.58 48.83 82.57 48.89 82.56 48.97C82.55 49.28 82.62 49.51 82.78 49.67C83.01 49.91 83.42 50.02 84.04 50.02C84.66 50.02 85.35 49.91 85.97 49.81C86.16 49.78 86.34 49.75 86.51 49.73C86.67 49.71 86.82 49.68 86.96 49.65C87.13 49.62 87.86 49.42 88.25 49.31C88.33 49.29 88.63 49.2 88.85 49C89.09 48.77 89.08 48.56 89.1 48.37C89.13 48.05 89.08 47.74 89 47.53C89 47.52 88.99 47.5 88.98 47.48C88.97 47.46 88.96 47.44 88.95 47.42C88.83 47.21 88.52 47.12 88.36 47.09C88.27 47.09 88.16 47.08 88.04 47.08V47.09Z" fill="white"/>
<path d="M89.08 56.81V56.78C88.9 56.02 87.32 56.09 86.53 56.17C85.81 56.27 83.83 56.4 83.72 56.17C83.66 56.03 83.77 55.87 83.86 55.78C83.86 55.78 83.87 55.76 83.88 55.75C84.53 55.12 85.43 54.61 85.89 54.37C86.48 54.08 87.58 53.62 88.11 53.31C88.3 53.2 88.45 53.08 88.56 52.97C88.57 52.95 88.68 52.83 88.77 52.67C88.77 52.67 89.04 52.06 88.47 51.76C88.3 51.68 88.15 51.64 88.15 51.64C88.01 51.61 87.74 51.61 87.72 51.61H87.68C87.16 51.58 86.67 51.66 86.66 51.66C86.24 51.71 85.59 51.77 85.09 51.82C84.86 51.84 84.61 51.86 84.35 51.89C82.15 52.06 78.96 52.24 78.96 52.24C78.57 52.28 78.35 52.27 77.98 52.29C77.9 52.29 78 52.3 77.93 52.31H77.89C77.11 52.38 76.94 53.02 76.94 53.03C76.86 53.43 76.87 54.02 77.56 54.25C77.98 54.38 79.98 54.09 81.43 53.92C81.49 53.92 81.55 53.91 81.61 53.9C81.9 53.87 82.45 53.83 82.51 53.99C82.55 54.07 82.43 54.2 82.28 54.32C81.65 54.88 80.99 55.26 80.51 55.49C80.42 55.53 79.78 55.78 79.12 55.99C78.43 56.2 77.53 56.5 77.22 56.77H77.21C77.21 56.77 77.14 56.85 77.11 56.89V56.92C77 57.06 76.9 57.3 77 57.62C77.05 57.83 77.19 57.97 77.36 58.06C77.43 58.09 77.7 58.2 78.31 58.11H78.33C80.04 57.89 81.37 57.9 82.03 57.93C82.03 57.93 82.69 57.93 83.71 57.99C84.19 58.01 84.65 58.04 85.02 58.08C85.02 58.08 86.03 58.16 86.25 58.16C86.88 58.16 87.43 58.16 87.86 58.14C88.2 58.12 88.91 58 89.07 57.36C89.14 57.14 89.11 56.9 89.09 56.8L89.08 56.81Z" fill="white"/>
<path d="M88.1 59.6C87.74 59.48 84.16 59.22 82.66 59.13C82.37 59.11 82.08 59.09 81.78 59.08H81.77C81.62 59.08 81.47 59.08 81.32 59.08C80.8 59.08 80.32 59.12 79.88 59.18C79.88 59.18 79.7 59.2 79.42 59.24C79.42 59.24 78.64 59.31 78.03 59.42C77.92 59.44 77.15 59.61 77.09 60.06C77.09 60.06 76.95 61.2 77.18 62.35C77.39 63.41 77.71 63.74 77.76 63.78C77.92 63.86 78.09 63.89 78.26 63.88C78.26 63.88 78.68 63.89 79.17 63.68C79.17 63.68 79.21 63.67 79.22 63.66H79.23C79.23 63.66 79.28 63.63 79.3 63.61C79.3 63.61 79.35 63.57 79.37 63.55C79.37 63.55 79.39 63.52 79.4 63.5C79.47 63.39 79.49 63.26 79.5 63.13V63.11C79.5 63.11 79.5 63.02 79.48 62.95C79.45 62.66 79.49 62.06 79.49 62.06C79.5 61.98 79.51 61.92 79.52 61.87C79.57 61.61 79.86 61.55 79.86 61.55C80.09 61.46 80.4 61.42 80.54 61.41C81.89 61.3 82.4 61.66 82.42 62.39V62.43C82.42 62.43 82.42 62.48 82.42 62.5C82.44 62.7 82.5 63.12 82.65 63.47C82.68 63.54 82.76 63.66 82.91 63.78C82.99 63.83 83.09 63.88 83.2 63.89C83.4 63.92 83.66 63.92 83.9 63.86C83.98 63.83 84.11 63.75 84.2 63.58C84.26 63.46 84.35 62.86 84.41 62.44C84.47 62.1 84.56 61.76 84.89 61.65C84.99 61.61 85.48 61.59 85.58 61.59C86.06 61.58 86.28 61.82 86.4 62.15C86.42 62.23 86.5 62.64 86.56 63.03C86.56 63.12 86.6 63.56 86.62 63.68C86.7 64.23 86.88 64.92 87.29 65.01C87.35 65.04 87.42 65.05 87.5 65.05C87.87 65.08 88.16 64.99 88.16 64.99C88.67 64.93 88.8 64.36 88.8 64.36C89.13 61.82 88.68 60.54 88.68 60.53C88.6 60.23 88.42 59.7 88.07 59.59L88.1 59.6Z" fill="white"/>
<path d="M80.83 78.9C79.59 77.73 77.8 74.88 77.8 74.88C77.6 74.58 77.41 74.29 77.23 74.02C77.08 73.75 76.58 73.02 76.49 72.88C76.15 72.36 76.13 72.19 75.89 71.83C75.65 71.51 75.01 70.84 74.23 71.43C73.36 71.9 74.11 73.29 74.66 73.97C75.13 74.52 76.68 76.12 76.54 76.33C76.46 76.46 76.26 76.45 76.13 76.42C74.96 76.37 73.82 75.54 73.82 75.54C73.26 75.21 72.3 74.64 71.73 74.35C71.4 74.18 71.14 74.13 70.93 74.12C70.66 74.11 70.49 74.23 70.49 74.23C70.37 74.33 70.23 74.54 70.32 74.93C70.32 74.95 70.42 75.22 70.52 75.36L71.85 77.19C72.9 78.43 74.66 81.14 75.28 82.11C75.28 82.11 76.1 83.61 76.84 83.84C77.59 84.07 78.23 83.31 78.24 83C78.26 82.86 78.26 82.71 78.22 82.54C78.11 82.12 76.73 80.6 75.8 79.48C75.8 79.48 75.72 79.39 75.69 79.34C75.51 79.12 75.47 78.85 75.57 78.71C75.62 78.63 75.79 78.66 75.98 78.72C76.62 78.89 76.88 78.97 77.31 79.2C77.49 79.3 79.34 80.29 80.45 80.6C80.76 80.68 81.31 80.74 81.47 80.27C81.69 79.61 80.84 78.9 80.84 78.9H80.83Z" fill="white"/>
<path d="M74.49 83.43C74.11 82.85 73.22 81.7 71.18 79.42L71.11 79.34C70.98 79.2 70.87 79.1 70.76 79.04C70.76 79.04 70.72 79.02 70.7 79.01C70.68 79.01 70.66 78.99 70.64 78.98C70.29 78.86 69.91 79.12 69.68 79.28C69.68 79.28 69.47 79.42 69.53 79.8C69.56 79.92 69.6 80.01 69.6 80.01C69.95 81.13 71.66 84.24 72.47 85.13C72.88 85.62 73.21 85.78 73.65 85.78C74.13 85.78 74.57 85.49 74.77 85.03C74.82 84.91 74.86 84.79 74.87 84.68V84.64C74.87 84.64 74.87 84.6 74.87 84.57C74.94 83.97 74.49 83.41 74.49 83.41V83.43Z" fill="white"/>
<path d="M66.14 78.34C66.04 78.25 65.69 77.91 65.49 77.9C65.49 77.9 64.54 77.78 64.3 78.69C64.17 79 64.28 79.35 64.28 79.35C64.28 79.35 64.53 80.09 65.38 80.98C65.38 80.98 66.55 82.22 67.23 83.21C67.61 83.78 67.98 84.44 68.06 84.98C68.24 86.19 67.21 86.29 67.21 86.29C67.17 86.3 67.14 86.3 67.1 86.31C66.3 86.39 65.58 85.74 65.15 85.24C65 85.04 64.84 84.83 64.74 84.69C64.72 84.66 64.7 84.63 64.68 84.6C64.65 84.56 64.63 84.53 64.63 84.53C64.18 83.89 63.78 83.14 63.4 82.42C62.76 81.21 62.1 79.95 61.47 79.86C61.33 79.84 61.2 79.83 61.08 79.83C60.73 79.83 60.48 79.93 60.33 80.12C60.04 80.52 60.26 81.23 60.26 81.24C60.77 82.54 61.56 83.82 62.74 85.26C63.56 86.25 64.67 87.39 65.39 88.01C65.46 88.07 67.4 89.54 69.08 88.53C69.08 88.53 69.21 88.43 69.38 88.26L69.4 88.24C69.4 88.24 69.43 88.21 69.45 88.19C70.37 87.21 70.18 85.75 70.07 85.24C69.76 83.86 68.85 81.25 66.13 78.36L66.14 78.34Z" fill="white"/>
<path d="M54.45 91.14C51.97 87.06 50.2 86.46 49.55 86.39C49.31 86.36 49.12 86.45 49.06 86.48C48.03 87.03 48.11 88.69 48.22 90.95C48.25 91.55 48.28 92.17 48.29 92.83C48.29 93.13 48.3 93.44 48.31 93.75C48.34 95.44 48.37 97.18 48.67 98.07C48.79 98.43 49.39 98.46 49.57 98.46C49.73 98.46 49.89 98.44 50.01 98.41C50.99 98.13 50.99 97.5 50.91 96.49C50.83 95.51 50.56 94.44 52.34 93.93C52.61 93.82 52.86 93.81 53.08 93.81C53.58 93.81 54.17 94.27 54.48 94.64C54.48 94.64 55.51 95.95 56.33 95.75C56.58 95.7 56.86 95.6 57.11 95.39C57.24 95.23 57.32 95.08 57.34 94.93C57.38 94.48 56.61 93.74 56.02 93.1C55.53 92.58 54.93 91.93 54.44 91.12L54.45 91.14ZM51.2 89.6C51.2 89.6 51.13 89.54 51.1 89.51C51.13 89.54 51.17 89.57 51.2 89.6ZM50.86 89.35C50.86 89.35 50.82 89.33 50.8 89.33C50.82 89.33 50.84 89.34 50.86 89.35ZM52.28 92.48C51.79 93.22 50.8 92.94 50.6 92.72C50.36 92.49 49.78 91.76 49.93 89.85C49.93 89.85 50.09 89.21 50.61 89.3C51.04 89.37 51.65 90.06 51.92 90.47C51.95 90.52 51.98 90.57 52 90.61C52.2 90.96 52.66 91.9 52.27 92.5L52.28 92.48Z" fill="white"/>
<path d="M41 86.54C41 86.54 40.98 86.52 40.97 86.5C40.97 86.5 40.92 86.44 40.9 86.41C40.7 86.22 40.44 86.14 40.31 86.12C40.15 86.09 40.01 86.08 39.87 86.08C39.77 86.08 39.67 86.08 39.57 86.1C38.88 86.25 38.26 86.89 38.22 86.92C37.83 87.34 37.2 88.05 36.79 88.68C36.06 89.8 34.9 91.61 34.29 92.74C34.26 92.8 34.21 92.89 34.16 92.99C34.08 93.15 34.01 93.28 33.94 93.37C33.56 94.03 33.03 94.89 32.91 95.09L32.89 95.13C32.82 95.25 32.65 95.59 32.67 95.97C32.67 96.01 32.68 96.05 32.69 96.09C32.72 96.25 32.78 96.38 32.84 96.49C32.84 96.49 32.97 96.68 33.28 96.84C33.44 96.91 33.57 96.95 33.68 96.95C34 96.95 34.37 96.91 34.57 96.42C34.73 96.03 35.45 94.79 36.03 94.31C36.03 94.31 36.33 93.96 36.9 94.14C36.97 94.16 37.04 94.18 37.12 94.23C37.12 94.23 37.13 94.23 37.14 94.23C37.22 94.28 37.3 94.33 37.4 94.41C38.46 95.09 38.19 95.9 37.95 96.61C37.71 97.32 37.5 97.94 38.39 98.57C38.52 98.65 38.74 98.75 39.07 98.78C39.09 98.78 39.11 98.78 39.13 98.78C40.36 98.78 40.49 97.64 40.61 95.63C40.65 94.91 40.7 94.18 40.82 93.44C41.71 88.2 41.52 87.18 41.01 86.55L41 86.54ZM39.31 92.31C39.31 92.31 39.31 92.32 39.31 92.33C39.31 92.35 39.3 92.37 39.29 92.39C39.04 93.02 38.37 92.8 38.3 92.78C37.95 92.67 37.57 92.4 37.37 92.02C37.21 91.72 37.19 91.38 37.32 91.07C37.42 90.79 37.76 90.04 38.15 89.56L38.19 89.52C38.27 89.42 38.36 89.33 38.45 89.26C38.65 89.08 38.93 88.9 39.2 88.94C39.36 88.94 39.51 89.03 39.55 89.31C39.64 89.87 39.61 91.56 39.32 92.32L39.31 92.31Z" fill="white"/>
<path d="M34.59 89.53C34.96 88.64 36.65 85.21 36.67 85.18C36.67 85.18 36.69 85.13 36.7 85.11C36.74 85.04 36.76 84.96 36.78 84.87C36.85 84.4 36.54 84.17 36.5 84.14C36.45 84.12 36.4 84.11 36.33 84.11C35.8 84.11 34.84 84.86 34.06 85.47C33.86 85.63 33.67 85.78 33.49 85.91H33.48C33.48 85.91 32.93 86.22 32.51 86.22C32.38 86.22 32.27 86.19 32.18 86.14C31.72 85.86 32.04 84.82 32.08 84.7C32.3 84.13 32.59 83.02 32.5 82.29C32.49 82.2 32.47 82.12 32.45 82.05C32.42 81.97 32.32 81.73 32.06 81.79C31.9 81.82 31.76 81.93 31.66 82.03C31.61 82.09 31.56 82.14 31.52 82.19C31.51 82.2 31.5 82.21 31.5 82.21C29.45 84.51 26.96 85.97 26.54 86.17L26.48 86.2C26.14 86.36 25.81 86.51 25.5 86.67H25.47C23.67 87.57 22.3 88.36 21.81 88.81C21.62 89.02 21.41 89.25 21.68 89.74C21.84 89.99 22.01 90.18 22.33 90.37C22.44 90.43 22.8 90.58 23.23 90.41C23.9 90.11 24.92 89.37 25.7 88.67C26.63 87.83 28.05 87.04 28.62 87.04C28.69 87.04 28.75 87.05 28.81 87.07L28.89 87.1C28.89 87.1 28.91 87.1 28.92 87.11C28.98 87.15 29.08 87.2 29.13 87.26C29.31 87.45 29.13 88.2 28.85 88.84C28.85 88.84 28.36 89.82 28.51 90.37C28.54 90.49 28.61 90.55 28.73 90.55C28.96 90.55 29.28 90.35 29.38 90.28C29.46 90.22 31.4 88.99 31.78 88.85C31.9 88.79 31.99 88.76 32.06 88.76C32.27 88.76 32.45 88.88 32.54 89.07C32.87 89.83 32.09 91.21 31.59 91.96C31.5 92.09 31.38 92.28 31.24 92.47C30.9 92.97 30.48 93.6 30.35 93.86C30.17 94.23 30.19 94.63 30.39 94.95C30.62 95.32 30.82 95.47 31.08 95.47C31.27 95.47 31.45 95.39 31.61 95.24C32.13 94.75 33.59 92.05 34.56 89.58L34.58 89.54L34.59 89.53Z" fill="white"/>
<path d="M21.87 80.97C22.1 80.18 22.33 79.67 22.48 79.35L22.5 79.3C22.5 79.3 22.49 79.34 22.48 79.35C22.48 79.33 22.5 79.32 22.5 79.3C22.58 79.12 22.64 79.03 22.68 78.98L22.74 78.92C22.83 78.84 22.98 78.79 23.23 78.82C23.23 78.82 23.46 78.84 23.77 78.97C23.78 78.97 23.8 78.98 23.82 78.99C23.92 79.04 24.18 79.15 24.27 79.18C24.57 79.27 25.07 79.37 25.33 79.22C25.72 78.99 25.85 78.59 25.85 78.59C25.91 78.28 25.82 77.73 24.7 77.33C24.18 77.17 23.49 77.12 23.49 77.12C20.57 76.84 20.12 76.49 20.12 76.49C19.97 76.44 19.8 76.38 19.63 76.32C19.63 76.32 18.77 75.96 18.11 76.47C18.01 76.55 17.97 76.61 17.97 76.61C17.81 76.79 17.74 77.01 17.72 77.18C17.72 77.18 17.68 77.33 17.75 77.54C17.77 77.57 17.95 77.95 18.44 78.19C18.53 78.23 18.81 78.33 19.34 78.33H19.36C19.7 78.33 20.17 78.37 20.49 78.57C20.96 78.78 20.74 79.25 20.74 79.25C20.49 80.21 20.18 80.89 20.18 80.9C19.61 82.07 18.85 83.44 18.11 84.1C18.06 84.15 18 84.19 17.95 84.23C17.73 84.41 17.35 84.76 17.1 85.11C16.72 85.67 16.38 86.46 16.79 87.17C16.82 87.21 17.08 87.61 17.55 87.64C17.56 87.64 17.57 87.64 17.58 87.64C18.29 87.68 19.66 87.44 20.61 85.34C20.86 84.74 21.18 83.47 21.18 83.46C21.34 82.78 21.59 81.85 21.87 80.99V80.97Z" fill="white"/>
<path d="M16.12 81.46C16.22 81.21 16.45 80.51 16.29 79.52C16.24 79.07 16.09 78.53 16.09 78.53C15.91 77.94 15.97 77.59 15.97 77.59C16.16 76.62 17.23 75.61 17.66 75.23C17.68 75.22 18.26 74.71 18.81 75.11C18.95 75.24 19.24 75.44 19.68 75.5C20.33 75.59 20.49 74.93 20.49 74.93C20.63 74.46 20.12 74.2 20.12 74.2C19.86 74.08 19.46 73.89 19.11 73.73C19.11 73.73 19.04 73.69 18.93 73.63C18.93 73.63 17.65 72.73 17.27 72.46C16.89 72.19 16.52 72.16 16.52 72.16C16.02 72.19 15.87 72.64 15.83 72.84C15.83 72.84 15.83 72.87 15.83 72.88C15.83 72.92 15.83 72.94 15.83 72.94C15.83 72.97 15.83 73.01 15.83 73.04C15.83 73.06 15.86 73.22 15.99 73.39C16.2 73.61 16.46 73.67 16.46 73.67C16.85 73.75 16.83 73.95 16.83 73.95C16.83 74.04 16.8 74.14 16.73 74.23C16.73 74.23 16.67 74.31 16.64 74.35C16.53 74.5 16.34 74.75 16.23 74.88C16.05 75.12 15.82 75.38 15.6 75.58C15.28 75.91 14.58 76.59 14.25 76.58C13.36 76.48 12.35 76.78 12.19 76.84C10.6 77.5 9.16001 78.87 8.96001 80.49C8.90001 81.26 9.11001 81.91 9.57001 82.41C10.18 83.06 11.12 83.36 11.89 83.5C12.01 83.52 13.43 83.7 14.24 83.32C14.85 83.04 15.63 82.5 16.14 81.46H16.12ZM13.09 81.58C13.09 81.58 12.99 81.58 12.94 81.58C12.09 81.52 11.57 80.95 11.6 80.08C11.63 79.11 12.36 78.03 13.32 78.13C14.18 78.22 14.65 79.17 14.6 80.04C14.55 80.98 13.96 81.59 13.08 81.59L13.09 81.58Z" fill="white"/>
<path d="M9.83999 77.26C9.83999 77.26 9.87999 77.23 9.90999 77.21C11.76 75.76 11.66 73.46 11.66 73.46C11.66 73.41 11.66 73.38 11.66 73.38C11.63 71.66 12.42 71.51 12.42 71.51C13.06 71.36 13.39 71.69 13.39 71.69C13.83 71.97 13.71 72.57 13.71 72.57C13.71 72.57 13.66 73.1 14.01 73.24C14.31 73.3 14.71 73.26 14.96 73.07C15.31 72.8 15.19 72.14 15.08 71.74C15.07 71.7 15.05 71.65 15.04 71.6C15 71.47 14.96 71.39 14.96 71.39C14.71 70.81 14.24 70.22 13.55 69.85C12.45 69.31 11.48 69.69 11.26 69.8C10.78 70.05 10.28 70.51 10.06 71.34C9.56999 73.18 9.66999 74.17 9.23999 75.02C8.53999 76.33 7.26999 75.93 7.26999 75.93C6.98999 75.81 6.42999 75.43 6.63999 74.49C6.63999 74.49 6.69999 74.21 6.83999 73.94C6.83999 73.94 6.87999 73.86 6.89999 73.83C7.01999 73.61 7.24999 73.07 7.09999 72.55C7.01999 72.4 6.89999 72.25 6.70999 72.11C6.22999 71.75 5.63999 72.04 5.22999 72.34C4.80999 72.64 4.38999 73.37 4.36999 73.39C4.26999 73.59 4.16999 73.8 4.08999 74.02C3.92999 74.44 3.67999 75.26 3.80999 76.03V76.09C3.86999 76.33 3.94999 76.57 4.09999 76.78C4.34999 77.24 4.80999 77.8 5.61999 78.15C7.17999 78.81 8.42999 78.19 8.42999 78.19C8.85999 78.01 9.36999 77.71 9.83999 77.31V77.26Z" fill="white"/>
<path d="M10.18 68.58H10.16C10.16 68.58 11.06 68.37 11.84 68.26C11.84 68.26 12.66 68.14 13.12 67.68C13.25 67.5 13.32 67.29 13.3 67.04C13.25 66.45 12.97 65.96 12.28 65.59C11.99 65.38 11.44 65.63 11.21 65.76C11.18 65.78 11.15 65.8 11.11 65.81H11.1C10.54 66.1 9.77 66.38 9.23 66.38C8.89 66.38 8.7 66.33 8.6 66.2C8.53 66.11 8.49 65.98 8.43 65.81C8.25 65.27 8.03 64.23 7.53 64.23C7.36 64.23 6.66 64.11 6.38 64.51C6.28 64.65 6.54 65.43 6.54 65.71C6.54 66.09 6.74 66.44 6.44 66.75C6.33 66.86 6.19 66.94 6.01 67C6.01 67 5.99 67 5.97 67.01C5.92 67.02 5.88 67.04 5.83 67.04C4.58 67.34 3.69 67.2 3.69 67.2C3.32 66.81 3.22 65.76 3.09 65.26C2.73 63.83 3.22 63.24 1.01 63.44C0.639999 63.49 0.429999 63.73 0.349999 64.19C0.089999 65.75 1.41 69.5 1.92 70.2C1.92 70.2 1.98 70.27 2.11 70.32C2.35 70.37 2.6 70.4 2.88 70.4C4.03 70.4 5.38 69.96 6.8 69.49C7.91 69.13 9.04 68.76 10.16 68.57L10.18 68.58Z" fill="white"/>
<path d="M9.41001 54.82C10.76 54.82 11.76 54.57 12.11 54.21C12.21 54.11 12.25 54.01 12.25 53.89C12.27 53.5 12.23 53.2 12.15 53C12.14 52.97 11.93 52.55 11.26 52.69C11.26 52.69 10.68 52.82 10.27 52.57C10.25 52.57 10.23 52.55 10.21 52.54C9.99001 52.39 9.84001 52.09 9.87001 51.46C9.77001 49.73 10.32 49.92 11.07 49.79C11.81 49.66 12.61 49.65 12.43 48.6C12.08 47.73 11.62 47.45 11.06 47.56C10.02 47.76 10.38 47.68 9.71001 47.84C9.02001 48 8.41001 48.2 7.49001 48.31C2.28001 48.94 0.260007 50.54 0.210007 51.41C0.190007 51.72 0.330007 52.04 0.620007 52.35C1.99001 53.81 6.35001 54.82 9.42001 54.82H9.41001ZM3.51001 50.94C3.96001 50.45 5.24001 50.32 5.93001 50.32C6.31001 50.32 6.99001 50.35 7.33001 50.59C7.73001 50.87 7.93001 51.38 7.81001 51.85C7.71001 52.27 7.39001 52.56 6.97001 52.61C6.86001 52.64 6.69001 52.65 6.47001 52.65C5.66001 52.65 3.43001 52.35 3.34001 51.38C3.34001 51.27 3.34001 51.1 3.50001 50.93L3.51001 50.94Z" fill="white"/>
<path d="M0.380018 45.01C0.400018 46.86 -0.309982 48.9 1.25002 48.9C1.34002 48.91 1.95002 48.96 2.29002 48.4C2.38002 48.19 2.44002 47.94 2.40002 47.69C2.37002 47.45 2.37002 47.23 2.40002 47.03C2.40002 46.97 2.42002 46.9 2.46002 46.8C2.51002 46.66 2.58002 46.55 2.65002 46.46C2.77002 46.3 2.91002 46.21 3.02002 46.15C3.02002 46.15 3.31002 45.91 4.59002 45.95C5.06002 45.95 5.65002 45.97 6.40002 46.04C6.40002 46.04 8.58002 46.18 9.43002 46.26H9.64002C11.43 46.26 12.24 46.07 12.26 45.27C12.28 44.78 12.18 44.43 11.95 44.2C11.69 43.93 11.02 43.81 10.35 43.81C9.77002 43.81 9.09002 43.9 8.37002 44C7.56002 44.11 6.72002 44.22 5.92002 44.22C5.92002 44.22 5.24002 44.23 4.53002 44.21C3.13002 44.19 3.16002 44.07 3.16002 44.07C2.91002 43.97 2.64002 43.76 2.56002 43.29C2.38002 42.33 2.59002 41.88 2.24002 41.23C1.89002 40.79 1.22002 40.86 1.22002 40.86H1.20002C0.930018 40.86 0.710018 40.94 0.540018 41.12C-0.0599824 41.73 0.350018 43.2 0.370018 44.63V45.01H0.380018Z" fill="white"/>
<path d="M1.92999 40.4C2.06999 40.47 2.21999 40.53 2.37999 40.57C2.85999 40.74 3.60999 41.01 4.13999 41.17C5.25999 41.53 6.81999 41.92 8.28999 41.91C9.26999 41.91 10.1 41.81 10.76 41.63C12.09 41.26 12.51 40.1 12.51 39.39C12.51 37.09 11.6 36.49 10.81 36.72C10.71 36.75 10.61 36.77 10.5 36.79C10.48 36.79 10.17 36.88 10.02 37.47C9.93999 38.38 9.95999 39.09 9.77999 39.42V39.44C9.77999 39.44 9.75999 39.46 9.74999 39.47C9.72999 39.5 9.69999 39.53 9.66999 39.55H9.64999C9.33999 39.78 8.72999 39.72 8.72999 39.72C8.40999 39.73 8.18999 39.69 8.13999 39.68H8.11999C7.17999 39.53 7.15999 38.36 7.15999 38.36C7.07999 37.99 7.05999 37.63 7.05999 37.63C6.87999 36.92 6.07999 36.9 6.07999 36.9C5.64999 36.82 5.51999 37.4 5.47999 37.58V37.63C5.41999 37.96 5.32999 38.29 5.25999 38.51C5.23999 38.59 5.20999 38.66 5.17999 38.74V38.77H5.16999C5.06999 38.98 4.91999 39.15 4.66999 39.19C3.77999 39.32 3.49999 38.93 3.49999 38.93C3.35999 38.82 3.18999 38.4 3.13999 38.09C3.09999 37.82 3.06999 37.48 3.05999 37.16C3.05999 37.16 3.09999 35.55 2.16999 35.43C2.07999 35.4 1.97999 35.38 1.87999 35.38C1.73999 35.38 1.56999 35.41 1.38999 35.47C0.569992 35.73 0.449992 37 0.529992 37.93C0.619992 38.87 1.04999 39.95 1.93999 40.41L1.92999 40.4Z" fill="white"/>
<path d="M13.19 18.78C13.24 18.88 13.3 19 13.38 19.13C13.5 19.33 13.64 19.54 13.79 19.75C13.84 19.83 13.9 19.91 13.95 20C13.95 20 14.38 20.62 15.3 21.99C15.98 23 17.23 23.56 17.8 23.75C17.85 23.76 18.09 23.8 18.51 23.65C18.55 23.63 18.58 23.62 18.62 23.6C18.89 23.43 19.05 23.24 19.11 23C19.19 22.66 19.07 22.23 18.74 21.68C18.42 21.14 17.28 19.92 16.86 19.43C16.74 19.28 16.61 19.14 16.5 19C16.17 18.6 15.88 18.36 15.63 18.15C15.56 18.09 15.48 18.01 15.4 17.93C15.34 17.87 15.28 17.82 15.21 17.76C15.15 17.71 15.09 17.66 15.04 17.61C14.88 17.48 14.62 17.3 14.41 17.29C14.14 17.28 13.99 17.42 13.99 17.42C13.81 17.62 13.32 17.93 13.32 17.93C12.95 18.23 13.18 18.77 13.19 18.81V18.78Z" fill="white"/>
<path d="M22.48 79.36C22.46 79.42 22.41 79.54 22.34 79.71C22.39 79.56 22.44 79.45 22.48 79.36Z" fill="white"/>
<path d="M66.08 33.03L60.8 29.98C60.8 29.98 60.72 29.95 60.68 29.95C60.64 29.95 60.6 29.96 60.56 29.98L55.28 33.03C55.21 33.07 55.16 33.15 55.16 33.23V40.33C55.16 40.42 55.21 40.49 55.28 40.53C55.32 40.55 55.35 40.56 55.39 40.56C55.43 40.56 55.48 40.55 55.51 40.52L57.48 39.28L57.57 39.22V48.63L47.52 53.51V46.52H50.95C51.08 46.52 51.18 46.42 51.18 46.29V40.82C51.18 40.69 51.08 40.59 50.95 40.59H47.51V30.45L49.57 31.74C49.57 31.74 49.65 31.78 49.69 31.78C49.73 31.78 49.77 31.78 49.8 31.75C49.87 31.71 49.92 31.63 49.92 31.55V24.45C49.92 24.37 49.88 24.29 49.8 24.25L44.52 21.2C44.52 21.2 44.44 21.17 44.4 21.17C44.36 21.17 44.32 21.18 44.28 21.2L39 24.25C38.93 24.29 38.88 24.37 38.88 24.45V31.55C38.88 31.63 38.93 31.71 39 31.75C39.04 31.77 39.07 31.78 39.11 31.78C39.15 31.78 39.2 31.77 39.23 31.74L41.2 30.5L41.29 30.44V40.58H37.85C37.72 40.58 37.62 40.68 37.62 40.81V46.28C37.62 46.41 37.72 46.51 37.85 46.51H41.29V53.49L31.28 48.63L31.25 48.61V39.21L33.31 40.51C33.31 40.51 33.39 40.55 33.43 40.55C33.47 40.55 33.51 40.55 33.54 40.52C33.61 40.48 33.66 40.4 33.66 40.32V33.22C33.66 33.14 33.62 33.06 33.54 33.02L28.26 29.97C28.26 29.97 28.18 29.94 28.14 29.94C28.1 29.94 28.06 29.95 28.02 29.97L22.74 33.02C22.67 33.06 22.62 33.14 22.62 33.22V40.32C22.62 40.4 22.67 40.48 22.74 40.52C22.78 40.54 22.81 40.55 22.85 40.55C22.89 40.55 22.94 40.54 22.98 40.51L25.04 39.22V70.88C25.04 71.01 25.14 71.11 25.27 71.11H31C31.13 71.11 31.23 71.01 31.23 70.88V65.71L31.26 65.69L41.19 60.87L41.28 60.83V76.3C41.28 76.43 41.38 76.53 41.51 76.53H47.24C47.37 76.53 47.47 76.43 47.47 76.3V60.82L57.52 65.7V70.87C57.52 71 57.62 71.1 57.75 71.1H63.48C63.61 71.1 63.71 71 63.71 70.87V39.22L63.8 39.28L65.77 40.52C65.77 40.52 65.85 40.56 65.89 40.56C65.93 40.56 65.97 40.56 66 40.53C66.07 40.49 66.12 40.41 66.12 40.33V33.23C66.12 33.15 66.07 33.07 66 33.03H66.08ZM39.9 57.23L31.38 61.37L31.3 61.41V53.05V52.95L31.38 52.99L39.9 57.13L40.01 57.18L39.9 57.23ZM46 44.88C45.87 44.88 45.77 44.98 45.77 45.11V53.53H43.13V45.11C43.13 44.98 43.03 44.88 42.9 44.88H39.31V42.24H42.9C43.03 42.24 43.13 42.13 43.13 42.01V38.76H45.77V42.01C45.77 42.14 45.87 42.24 46 42.24H49.59V44.88H46ZM57.59 53.05V61.4L57.51 61.36L49.01 57.23L48.9 57.18L49.01 57.13L57.51 53L57.59 52.96V53.05Z" fill="white"/>
</svg>
